<svg id="icon" fill="whitesmoke" xmlns="http://www.w3.org/2000/svg" width="32" height="32" viewBox="0 0 32 32">
  <defs>
    <style>
      .checkbox {
        fill: none;
      }
    </style>
  </defs>
  <title>checkbox-checked-filled</title>
  <path d="M26,4H6A2,2,0,0,0,4,6V26a2,2,0,0,0,2,2H26a2,2,0,0,0,2-2V6A2,2,0,0,0,26,4ZM14,21.5,9,16.5427,10.5908,15,14,18.3456,21.4087,11l1.5918,1.5772Z" transform="translate(0 0)"/>
  <path id="inner-path" class="checkbox" d="M14,21.5,9,16.5427,10.5908,15,14,18.3456,21.4087,11l1.5918,1.5772Z" transform="translate(0 0)"/>
  <rect id="_Transparent_Rectangle_" class="checkbox" width="32" height="32"/>
</svg>
